<?xml version="1.0" encoding="UTF-8"?>
<svg xmlns="http://www.w3.org/2000/svg" viewBox="180 268 305 280">
  <defs>
    <style>
      .st0 { fill: #1C1917; font-family: GillSansMT-Bold, 'Gill Sans MT'; font-size: 46.73px; font-weight: 700; }
      .st2 { fill: #19b7a5; }
      .st3 { fill: #f97316; }
    </style>
  </defs>
  <path class="st3" d="M477.48,273.93c-9.49,10.4-20.21,19.94-30.36,29.84-11.37,11.09-22.39,22.49-34.23,33.17h-142.4l-.68.62v20.1h-15.52v-34.82h150.85l34.7-33.57.21-.83c-.45.12-.96-.42-1.14-.42h-234.15l-.68.62v84.97l.68.62h34v14.09h-34l-.68.62v71.29l1.07.57,47.92-31.93,1.21-1.39v-24.25h15.52v32.33l-8.89,5.39c-22.96,16.11-46.49,31.69-69.37,47.67-.9.63-2.08.99-2.98,1.65v-216.37h288.92Z"/>
  <polygon class="st3" points="325.26 417.59 358.36 388.16 357.9 386.92 285.55 386.92 285.55 372.82 364.74 372.82 365.38 371.85 343.52 351.69 367.01 351.28 398.74 379.66 362.46 408.89 352.42 417.59 325.26 417.59"/>
  <rect class="st2" x="254.25" y="374.23" width="15.53" height="14.1"/>
  <text class="st0" transform="translate(188.57 535.69) scale(1.11 1)"><tspan x="0" y="0">foreplannr</tspan></text>
</svg>
